#!OML:ASF H:\Pregnant\Project 1\Capture day 1\Session 1\femalepreg.ASF
:FULLY-SPECIFIED
:DEGREES
1191
root 0.102638 15.6227 9.40157 380.464 -3.95311 -358.646
lowerback -16.2749 -1.15694 -10.8404
upperback -7.29314 0.11515 -1.95965
thorax 1.23441 0.253618 4.05109
lowerneck -24.955 -9.69129 -8.66149
upperneck 23.6288 -14.0815 11.7912
head 13.7077 -5.41921 3.264
rclavicle -4.12478e-015 6.36111e-015
rhumerus -13.7026 18.5974 -74.2814
rradius 56.4065
rwrist -36.8174
rhand -26.3874 -45.1342
rfingers 7.12502
rthumb 0.171568 -75.1139
lclavicle -4.12478e-015 6.36111e-015
lhumerus -8.034 -26.9505 70.6823
lradius 51.9028
lwrist 52.2925
lhand -35.2578 24.6851
lfingers 7.12502
lthumb -8.3936 54.4984
rfemur -58.8908 15.8483 5.72953
rtibia 37.3961
rfoot -11.9781 -22.3286
rtoes -4.47767
lfemur -14.1214 -5.37332 -22.6029
ltibia 17.211
lfoot -10.9341 8.33757
ltoes -45.3272
1192
root 0.0840013 15.6198 9.5489 380.569 -3.74431 -358.439
lowerback -16.4224 -1.24238 -10.8354
upperback -7.36983 0.015149 -1.88745
thorax 1.24353 0.207504 4.10823
lowerneck -25.0192 -9.59822 -8.51854
upperneck 23.6915 -13.9409 11.5938
head 13.6962 -5.36649 3.19352
rclavicle 2.16178e-015 -3.73715e-014
rhumerus -13.7817 18.695 -74.2607
rradius 56.3886
rwrist -36.8537
rhand -26.4739 -45.2252
rfingers 7.12502
rthumb 0.0880522 -75.2049
lclavicle 2.16178e-015 -3.73715e-014
lhumerus -8.10216 -27.0229 70.7388
lradius 51.9303
lwrist 52.3525
lhand -35.2383 24.7169
lfingers 7.12502
lthumb -8.3748 54.5309
rfemur -59.3204 16.7101 4.49217
rtibia 36.2912
rfoot -12.1801 -22.987
rtoes -4.51237
lfemur -12.9699 -5.4711 -22.7469
ltibia 15.8996
lfoot -10.6242 7.88273
ltoes -45.539
1193
root 0.0645047 15.6141 9.69746 380.66 -3.53363 -358.226
lowerback -16.5764 -1.32098 -10.817
upperback -7.45588 -0.0776729 -1.81636
thorax 1.24523 0.165372 4.15769
lowerneck -25.0541 -9.49894 -8.33215
upperneck 23.7611 -13.7883 11.3255
head 13.67 -5.31535 3.09147
rclavicle -6.60959e-015 2.06736e-014
rhumerus -13.8817 18.8016 -74.2554
rradius 56.3382
rwrist -36.8721
rhand -26.5749 -45.3001
rfingers 7.12502
rthumb -0.00955559 -75.2799
lclavicle -6.60959e-015 2.06736e-014
lhumerus -8.20673 -27.1068 70.8151
lradius 51.9535
lwrist 52.4215
lhand -35.2228 24.7302
lfingers 7.12502
lthumb -8.35978 54.5448
rfemur -59.7129 17.4754 3.35566
rtibia 35.3651
rfoot -12.4222 -23.6076
rtoes -4.56038
lfemur -11.8434 -5.55303 -22.8957
ltibia 14.6675
lfoot -10.3234 7.4217
ltoes -45.7347
1194
root 0.0443733 15.6051 9.84717 380.733 -3.3123 -358.004
lowerback -16.7295 -1.39863 -10.7845
upperback -7.54382 -0.171759 -1.7407
thorax 1.24484 0.122569 4.20363
lowerneck -25.0874 -9.38926 -8.12989
upperneck 23.8499 -13.6129 11.0056
head 13.6431 -5.25941 2.9718
rclavicle -5.11871e-015 -1.59028e-014
rhumerus -13.9811 18.9253 -74.257
rradius 56.254
rwrist -36.8725
rhand -26.6806 -45.392
rfingers 7.12502
rthumb -0.111612 -75.3718
lclavicle -5.11871e-015 -1.59028e-014
lhumerus -8.33902 -27.1837 70.9105
lradius 51.9664
lwrist 52.4924
lhand -35.218 24.739
lfingers 7.12502
lthumb -8.35518 54.5537
rfemur -60.0261 18.0819 2.40308
rtibia 34.6121
rfoot -12.6791 -24.1312
rtoes -4.62496
lfemur -10.7705 -5.62599 -23.0493
ltibia 13.5788
lfoot -10.0553 6.96202
ltoes -45.9071
1195
root 0.0237253 15.5924 9.9981 380.779 -3.08318 -357.778
lowerback -16.8769 -1.47324 -10.7334
upperback -7.63203 -0.265613 -1.66037
thorax 1.24149 0.0797081 4.24404
lowerneck -25.1241 -9.26927 -7.96846
upperneck 23.9613 -13.4155 10.7045
head 13.6303 -5.19452 2.87109
rclavicle 4.47266e-016 -2.62396e-014
rhumerus -14.0785 19.0672 -74.2652
rradius 56.1383
rwrist -36.8553
rhand -26.7738 -45.4874
rfingers 7.12502
rthumb -0.201622 -75.4671
lclavicle 4.47266e-016 -2.62396e-014
lhumerus -8.49743 -27.2566 71.0219
lradius 51.9668
lwrist 52.5679
lhand -35.217 24.7433
lfingers 7.12502
lthumb -8.35418 54.5581
rfemur -60.2188 18.4847 1.71386
rtibia 34.0219
rfoot -12.8639 -24.4912
rtoes -4.92813
lfemur -9.78046 -5.68176 -23.2052
ltibia 12.7029
lfoot -9.85002 6.50608
ltoes -46.039
1196
root 0.00272609 15.5759 10.1502 380.797 -2.84692 -357.55
lowerback -17.0155 -1.54769 -10.6615
upperback -7.71508 -0.363706 -1.56831
thorax 1.24006 0.0341728 4.28433
lowerneck -25.1867 -9.1386 -7.80973
upperneck 24.1047 -13.1907 10.3633
head 13.6303 -5.12165 2.76042
rclavicle -1.07841e-014 2.38542e-014
rhumerus -14.1585 19.2369 -74.2713
rradius 55.9988
rwrist -36.8268
rhand -26.851 -45.5866
rfingers 7.12502
rthumb -0.276174 -75.5661
lclavicle -1.07841e-014 2.38542e-014
lhumerus -8.67635 -27.3107 71.1479
lradius 51.9588
lwrist 52.6438
lhand -35.2172 24.7717
lfingers 7.12502
lthumb -8.3544 54.5865
rfemur -60.2643 18.6593 1.3408
rtibia 33.5874
rfoot -12.9216 -24.6213
rtoes -5.54392
lfemur -8.90225 -5.72155 -23.3589
ltibia 12.1006
lfoot -9.72501 6.06753
ltoes -46.1456
1197
root -0.0186915 15.5564 10.3039 380.784 -2.60755 -357.323
lowerback -17.1507 -1.61451 -10.5627
upperback -7.79385 -0.456295 -1.47344
thorax 1.24108 -0.00948833 4.31333
lowerneck -25.2614 -9.00232 -7.67163
upperneck 24.2766 -12.9491 10.0127
head 13.6451 -5.04378 2.65269
rclavicle 1.44119e-015 2.14687e-014
rhumerus -14.2336 19.4154 -74.2841
rradius 55.841
rwrist -36.7945
rhand -26.9199 -45.6935
rfingers 7.12502
rthumb -0.34272 -75.673
lclavicle 1.44119e-015 2.14687e-014
lhumerus -8.87068 -27.3775 71.279
lradius 51.9372
lwrist 52.7195
lhand -35.2303 24.8219
lfingers 7.12502
lthumb -8.36707 54.6362
rfemur -60.1588 18.6169 1.28607
rtibia 33.3132
rfoot -12.6086 -24.4472
rtoes -6.58668
lfemur -8.14916 -5.73799 -23.5086
ltibia 11.8008
lfoot -9.69031 5.64031
ltoes -46.2005
1198
root -0.0405899 15.5352 10.4591 380.739 -2.36562 -357.107
lowerback -17.2815 -1.67545 -10.4288
upperback -7.86235 -0.546998 -1.368
thorax 1.25118 -0.0536821 4.33412
lowerneck -25.3766 -8.85663 -7.59915
upperneck 24.4825 -12.6832 9.70684
head 13.6906 -4.95339 2.57728
rclavicle 4.22417e-015 -1.35174e-014
rhumerus -14.2871 19.6107 -74.2956
rradius 55.672
rwrist -36.7669
rhand -26.9767 -45.7983
rfingers 7.12502
rthumb -0.397551 -75.7777
lclavicle 4.22417e-015 -1.35174e-014
lhumerus -9.07237 -27.4346 71.4134
lradius 51.9054
lwrist 52.7876
lhand -35.2475 24.8756
lfingers 7.12502
lthumb -8.38359 54.6892
rfemur -59.9029 18.3731 1.54678
rtibia 33.2171
rfoot -11.7648 -23.8893
rtoes -7.89772
lfemur -7.5127 -5.73627 -23.6405
ltibia 11.7885
lfoot -9.72894 5.21629
ltoes -46.2198
1199
root -0.0634308 15.5143 10.6157 380.666 -2.12272 -356.907
lowerback -17.4142 -1.72357 -10.255
upperback -7.92348 -0.626736 -1.26224
thorax 1.26896 -0.0940053 4.33463
lowerneck -25.4978 -8.70698 -7.56228
upperneck 24.699 -12.4049 9.42442
head 13.7468 -4.85795 2.51909
rclavicle -3.23025e-015 -1.11319e-014
rhumerus -14.3348 19.7914 -74.3204
rradius 55.4962
rwrist -36.7458
rhand -27.0354 -45.899
rfingers 7.12502
rthumb -0.454319 -75.8783
lclavicle -3.23025e-015 -1.11319e-014
lhumerus -9.27206 -27.512 71.5412
lradius 51.8554
lwrist 52.8498
lhand -35.2702 24.9447
lfingers 7.12502
lthumb -8.40553 54.7574
rfemur -59.5264 17.9933 2.03934
rtibia 33.3276
rfoot -10.5118 -22.9495
rtoes -9.06944
lfemur -6.97707 -5.72413 -23.7472
ltibia 12.018
lfoot -9.80313 4.78133
ltoes -46.2091
1200
root -0.0872873 15.4953 10.7733 380.566 -1.8814 -356.728
lowerback -17.5414 -1.75397 -10.0332
upperback -7.97917 -0.69152 -1.15956
thorax 1.28791 -0.128357 4.30743
lowerneck -25.6196 -8.55295 -7.56713
upperneck 24.9187 -12.1183 9.18957
head 13.8124 -4.75695 2.48796
rclavicle -1.27222e-014 1.90833e-014
rhumerus -14.3867 19.9373 -74.3669
rradius 55.3205
rwrist -36.7241
rhand -27.0858 -45.9846
rfingers 7.12502
rthumb -0.502989 -75.9637
lclavicle -1.27222e-014 1.90833e-014
lhumerus -9.46791 -27.6072 71.6605
lradius 51.7862
lwrist 52.8992
lhand -35.2836 25.0199
lfingers 7.12502
lthumb -8.41844 54.8321
rfemur -59.0624 17.5433 2.6786
rtibia 33.6643
rfoot -9.10094 -21.6891
rtoes -9.60395
lfemur -6.52125 -5.70952 -23.8186
ltibia 12.4427
lfoot -9.87855 4.31968
ltoes -46.1802
1201
root -0.112065 15.4793 10.9312 380.441 -1.6472 -356.572
lowerback -17.6529 -1.76317 -9.75786
upperback -8.03532 -0.739166 -1.06947
thorax 1.29585 -0.155236 4.23971
lowerneck -25.7135 -8.39847 -7.59502
upperneck 25.1202 -11.8393 9.01145
head 13.8735 -4.65576 2.4818
rclavicle -2.39536e-014 4.85035e-014
rhumerus -14.4518 20.026 -74.4568
rradius 55.1396
rwrist -36.6825
rhand -27.1268 -46.0386
rfingers 7.12502
rthumb -0.542536 -76.0176
lclavicle -2.39536e-014 4.85035e-014
lhumerus -9.66253 -27.7167 71.7649
lradius 51.6943
lwrist 52.9327
lhand -35.2909 25.0901
lfingers 7.12502
lthumb -8.42549 54.902
rfemur -58.5544 17.0769 3.38128
rtibia 34.2194
rfoot -7.68079 -20.2694
rtoes -9.38967
lfemur -6.15698 -5.7051 -23.8532
ltibia 13.0645
lfoot -9.93174 3.83685
ltoes -46.1626
1202
root -0.137348 15.4667 11.0888 380.29 -1.42553 -356.45
lowerback -17.7363 -1.74914 -9.41744
upperback -8.08328 -0.769856 -0.989484
thorax 1.29591 -0.175471 4.12772
lowerneck -25.7981 -8.24318 -7.5906
upperneck 25.2932 -11.5682 8.83168
head 13.9199 -4.55666 2.46781
rclavicle -4.47266e-015 -1.19271e-015
rhumerus -14.5094 20.0513 -74.5875
rradius 54.9475
rwrist -36.6089
rhand -27.1485 -46.0439
rfingers 7.12502
rthumb -0.563523 -76.0229
lclavicle -4.47266e-015 -1.19271e-015
lhumerus -9.8438 -27.8089 71.8508
lradius 51.5804
lwrist 52.944
lhand -35.2867 25.1472
lfingers 7.12502
lthumb -8.42149 54.9593
rfemur -58.0563 16.6708 4.0545
rtibia 34.9421
rfoot -6.41239 -18.9358
rtoes -8.36851
lfemur -5.92396 -5.71524 -23.8438
ltibia 13.9532
lfoot -9.97627 3.34026
ltoes -46.1532
